<svg width="600" height="700" viewBox="0 0 600 700" fill="none" xmlns="http://www.w3.org/2000/svg">
<rect x="201" width="97.5" height="97.4286" fill="white"/>
<rect y="200.857" width="97.5" height="97.4286" fill="white"/>
<rect y="301.285" width="97.5" height="97.4286" fill="white"/>
<rect y="401.715" width="97.5" height="97.4286" fill="white"/>
<rect x="201" y="602.572" width="97.5" height="97.4286" fill="white"/>
<rect x="301.5" y="602.572" width="97.5" height="97.4286" fill="white"/>
<rect x="301.5" width="97.5" height="97.4286" fill="white"/>
<rect x="100.5" y="100.428" width="97.5" height="97.4286" fill="white"/>
<rect x="100.5" y="502.143" width="97.5" height="97.4286" fill="white"/>
<rect x="502.5" y="200.857" width="97.5" height="97.4286" fill="white"/>
<rect x="402" width="97.5" height="97.4286" fill="white"/>
<rect x="502.5" y="100.428" width="97.5" height="97.4286" fill="white"/>
<rect x="301.5" y="200.857" width="97.5" height="97.4286" fill="white"/>
<rect x="201" y="301.285" width="97.5" height="97.4286" fill="white"/>
<rect x="402" y="301.285" width="97.5" height="97.4286" fill="white"/>
<rect x="301.5" y="401.715" width="97.5" height="97.4286" fill="white"/>
<rect x="402" y="602.572" width="97.5" height="97.4286" fill="white"/>
<rect x="502.5" y="602.572" width="97.5" height="97.4286" fill="white"/>
</svg>
