<svg width="500" height="700" viewBox="0 0 500 700" fill="none" xmlns="http://www.w3.org/2000/svg">
<rect width="97.6" height="97.4286" transform="matrix(-1 0 0 1 198.199 0)" fill="white"/>
<rect width="97.6" height="97.4286" transform="matrix(-1 0 0 1 298.801 0)" fill="white"/>
<rect width="97.6" height="97.4286" transform="matrix(-1 0 0 1 399.398 100.428)" fill="white"/>
<rect width="97.6" height="97.4286" transform="matrix(-1 0 0 1 500 200.857)" fill="white"/>
<rect width="97.6" height="97.4286" transform="matrix(-1 0 0 1 500 301.285)" fill="white"/>
<path d="M500 401.715H402.4V499.143H500V401.715Z" fill="white"/>
<path d="M399.398 502.143H301.798V599.571H399.398V502.143Z" fill="white"/>
<path d="M298.801 602.572H201.201V700.001H298.801V602.572Z" fill="white"/>
<path d="M198.199 602.572H100.599V700.001H198.199V602.572Z" fill="white"/>
</svg>
