<svg width="500" height="700" viewBox="0 0 500 700" fill="none" xmlns="http://www.w3.org/2000/svg">
<rect x="100.5" y="0.5" width="99" height="99" fill="#00FFF7" stroke="black"/>
<rect x="200.5" y="0.5" width="99" height="99" fill="#00FFF7" stroke="black"/>
<rect x="300.5" y="0.5" width="99" height="99" fill="#00FFF7" stroke="black"/>
<rect x="0.5" y="600.5" width="99" height="99" fill="#00FFF7" stroke="black"/>
<rect x="200.5" y="300.5" width="99" height="99" fill="#00FFF7" stroke="black"/>
<rect x="0.5" y="0.5" width="99" height="99" fill="#00FFF7" stroke="black"/>
<rect x="400.5" y="0.5" width="99" height="99" fill="#00FFF7" stroke="black"/>
<rect x="200.5" y="100.5" width="99" height="99" fill="#00FFF7" stroke="black"/>
<rect x="200.5" y="200.5" width="99" height="99" fill="#00FFF7" stroke="black"/>
<rect x="100.5" y="600.5" width="99" height="99" fill="#00FFF7" stroke="black"/>
<rect x="200.5" y="600.5" width="99" height="99" fill="#00FFF7" stroke="black"/>
<rect x="300.5" y="600.5" width="99" height="99" fill="#00FFF7" stroke="black"/>
<rect x="200.5" y="400.5" width="99" height="99" fill="#00FFF7" stroke="black"/>
<rect x="200.5" y="500.5" width="99" height="99" fill="#00FFF7" stroke="black"/>
<rect x="400.5" y="600.5" width="99" height="99" fill="#00FFF7" stroke="black"/>
</svg>
